# xmcd
#
# Track frame offsets:
#	150
#	13318
#	24785
#	46760
#	61809
#	78267
#	95754
#	131720
#	153451
#	167314
#	190730
#	200972
#	224486
#	240708
#	263992
#	285678
#
# Disc length: 4044 seconds
#
# Revision: 0
# Processed by: cddbd v1.5.2PL0 Copyright (c) Steve Scherf et al.
# Submitted via: dBpowerAMP V4.0
#
DISCID=df0fca10
DTITLE=The Healers - Live from New York City
DYEAR=1900
DGENRE=Blues
TTITLE0=Caldonia
TTITLE1=Outta Sight
TTITLE2=Let The Good Times Roll
TTITLE3=Guilty
TTITLE4=The Thrill Is Gone
TTITLE5=Proud Mary
TTITLE6=Georgia
TTITLE7=The Letter
TTITLE8=Travelin South
TTITLE9=It's Not My Cross To Bear
TTITLE10=I Feel Good
TTITLE11=Look-a Py Py
TTITLE12=You Are So Beautiful
TTITLE13=Mojo
TTITLE14=Feelin Alright
TTITLE15=Funky Miracle
EXTD=
EXTT0=
EXTT1=
EXTT2=
EXTT3=
EXTT4=
EXTT5=
EXTT6=
EXTT7=
EXTT8=
EXTT9=
EXTT10=
EXTT11=
EXTT12=
EXTT13=
EXTT14=
EXTT15=
PLAYORDER=
